<svg version="1.1" id="Layer_1" xmlns="http://www.w3.org/2000/svg" xmlns:xlink="http://www.w3.org/1999/xlink" x="0px" y="0px"
	 width="100%" viewBox="0 0 724 670" enable-background="new 0 0 724 670" xml:space="preserve">
<path fill="#FFFFFF" opacity="1.000000" stroke="none" 
	d="
M495.000000,671.000000 
	C330.000000,671.000000 165.500000,671.000000 1.000000,671.000000 
	C1.000000,447.666656 1.000000,224.333328 1.000000,1.000000 
	C242.333328,1.000000 483.666656,1.000000 725.000000,1.000000 
	C725.000000,224.333328 725.000000,447.666656 725.000000,671.000000 
	C648.500000,671.000000 572.000000,671.000000 495.000000,671.000000 
M472.989685,204.158859 
	C472.986420,203.325653 473.126373,202.462448 472.959076,201.663589 
	C468.206879,178.972397 461.128906,157.133224 449.969818,136.672516 
	C435.945648,110.958557 418.112305,88.504669 395.444244,69.800316 
	C380.027252,57.079163 363.391541,46.525639 345.327911,38.035923 
	C321.320374,26.752632 295.999847,20.062092 269.707336,18.256561 
	C249.423096,16.863623 228.903717,17.099489 208.817444,21.205555 
	C186.122177,25.844955 164.337646,33.170689 143.921738,44.461224 
	C122.008476,56.579845 102.405777,71.413040 85.431953,89.923241 
	C69.070053,107.766144 55.917057,127.527336 45.721844,149.472763 
	C34.605503,173.400925 28.024590,198.541260 26.247087,224.663895 
	C24.889439,244.616226 25.223604,264.770386 29.087719,284.570496 
	C34.826733,313.977783 45.523540,341.502502 62.115726,366.502686 
	C74.548782,385.236145 89.151413,402.084412 106.718300,416.385132 
	C122.082832,428.892975 138.471237,439.555145 156.457047,447.828400 
	C187.430481,462.075867 219.853836,469.207550 254.003128,468.808777 
	C254.424622,471.724121 254.648712,474.684235 255.298065,477.547913 
	C262.019409,507.189972 273.730530,534.655762 291.229950,559.586609 
	C303.614075,577.229858 318.114594,592.970825 334.992340,606.312317 
	C352.246796,619.951599 371.072296,631.072693 391.589722,639.296204 
	C409.901184,646.635681 428.800720,651.817383 448.344696,653.791504 
	C462.003937,655.171204 475.883209,655.363647 489.609344,654.784851 
	C501.177368,654.297058 512.785583,652.534546 524.164673,650.273071 
	C545.927979,645.947937 566.421692,637.967590 585.804565,627.083679 
	C600.740112,618.697083 614.795349,609.098083 627.148071,597.232361 
	C634.972778,589.716187 642.459351,581.813354 649.685120,573.715881 
	C661.868958,560.062195 671.319397,544.500488 679.306335,528.135498 
	C691.469482,503.213257 698.867126,476.730743 700.741760,449.136688 
	C702.130066,428.700684 701.943970,408.025879 697.790283,387.790039 
	C693.111145,364.994110 685.605774,343.190338 674.405640,322.595734 
	C664.198730,303.827515 651.551636,286.972595 636.904602,271.636902 
	C629.879211,264.281189 621.867615,257.786804 613.853699,251.472092 
	C595.481750,236.995667 575.163635,225.907410 553.148254,217.954880 
	C527.226440,208.591232 500.544342,203.965622 472.989685,204.158859 
z"/>
<path fill="#F7309D" opacity="1.000000" stroke="none" 
	d="
M472.944550,205.015030 
	C500.544342,203.965622 527.226440,208.591232 553.148254,217.954880 
	C575.163635,225.907410 595.481750,236.995667 613.853699,251.472092 
	C621.867615,257.786804 629.879211,264.281189 636.904602,271.636902 
	C651.551636,286.972595 664.198730,303.827515 674.405640,322.595734 
	C685.605774,343.190338 693.111145,364.994110 697.790283,387.790039 
	C701.943970,408.025879 702.130066,428.700684 700.741760,449.136688 
	C698.867126,476.730743 691.469482,503.213257 679.306335,528.135498 
	C671.319397,544.500488 661.868958,560.062195 649.685120,573.715881 
	C642.459351,581.813354 634.972778,589.716187 627.148071,597.232361 
	C614.795349,609.098083 600.740112,618.697083 585.804565,627.083679 
	C566.421692,637.967590 545.927979,645.947937 524.164673,650.273071 
	C512.785583,652.534546 501.177368,654.297058 489.609344,654.784851 
	C475.883209,655.363647 462.003937,655.171204 448.344696,653.791504 
	C428.800720,651.817383 409.901184,646.635681 391.589722,639.296204 
	C371.072296,631.072693 352.246796,619.951599 334.992340,606.312317 
	C318.114594,592.970825 303.614075,577.229858 291.229950,559.586609 
	C273.730530,534.655762 262.019409,507.189972 255.298065,477.547913 
	C254.648712,474.684235 254.424622,471.724121 253.984039,468.390747 
	C253.964966,467.972748 253.961716,468.030487 254.425232,467.996033 
	C267.447845,466.676453 280.151489,466.198669 292.543243,463.979340 
	C396.966187,445.277313 475.260345,352.296600 475.837128,246.224701 
	C475.911865,232.475388 474.013489,218.715332 473.000580,204.962540 
	C472.972046,204.964828 472.944550,205.015030 472.944550,205.015030 
z"/>
<path fill="#30DDF7" opacity="1.000000" stroke="none" 
	d="
M253.990814,467.959778 
	C219.853836,469.207550 187.430481,462.075867 156.457047,447.828400 
	C138.471237,439.555145 122.082832,428.892975 106.718300,416.385132 
	C89.151413,402.084412 74.548782,385.236145 62.115726,366.502686 
	C45.523540,341.502502 34.826733,313.977783 29.087719,284.570496 
	C25.223604,264.770386 24.889439,244.616226 26.247087,224.663895 
	C28.024590,198.541260 34.605503,173.400925 45.721844,149.472763 
	C55.917057,127.527336 69.070053,107.766144 85.431953,89.923241 
	C102.405777,71.413040 122.008476,56.579845 143.921738,44.461224 
	C164.337646,33.170689 186.122177,25.844955 208.817444,21.205555 
	C228.903717,17.099489 249.423096,16.863623 269.707336,18.256561 
	C295.999847,20.062092 321.320374,26.752632 345.327911,38.035923 
	C363.391541,46.525639 380.027252,57.079163 395.444244,69.800316 
	C418.112305,88.504669 435.945648,110.958557 449.969818,136.672516 
	C461.128906,157.133224 468.206879,178.972397 472.959076,201.663589 
	C473.126373,202.462448 472.986420,203.325653 472.967102,204.586945 
	C472.944550,205.015030 472.972046,204.964828 472.532043,204.981369 
	C456.457947,206.864929 440.524170,207.401291 425.244446,210.842026 
	C374.070312,222.365616 332.048645,249.250504 299.508453,290.306824 
	C268.026947,330.027405 251.522629,375.477448 251.166733,426.304138 
	C251.069397,440.205719 252.975174,454.121307 253.961716,468.030487 
	C253.961716,468.030487 253.964966,467.972748 253.990814,467.959778 
z"/>
<path fill="#F2F8EE" opacity="1.000000" stroke="none" 
	d="
M254.425232,467.996033 
	C252.975174,454.121307 251.069397,440.205719 251.166733,426.304138 
	C251.522629,375.477448 268.026947,330.027405 299.508453,290.306824 
	C332.048645,249.250504 374.070312,222.365616 425.244446,210.842026 
	C440.524170,207.401291 456.457947,206.864929 472.560577,204.979080 
	C474.013489,218.715332 475.911865,232.475388 475.837128,246.224701 
	C475.260345,352.296600 396.966187,445.277313 292.543243,463.979340 
	C280.151489,466.198669 267.447845,466.676453 254.425232,467.996033 
z"/>
</svg>