<?xml version="1.0" encoding="UTF-8"?>
<svg version="1.1" xmlns="http://www.w3.org/2000/svg" width="724" height="670">
<path d="M0 0 C0.84658173 -0.00979385 1.69316345 -0.01958771 2.56539917 -0.02967834 C43.04623678 -0.40118307 80.91413133 5.88360984 116.9765625 25.21728516 C118.25078418 25.89976403 119.52950762 26.57390162 120.8125 27.23974609 C137.55763195 35.93595041 152.25737206 47.25253285 165.8828125 60.23828125 C167.25107053 61.41284758 168.62543334 62.58036762 170.0078125 63.73828125 C184.43226344 76.35597345 196.07831327 92.86563518 205.8828125 109.23828125 C206.27533203 109.88249023 206.66785156 110.52669922 207.07226562 111.19042969 C218.68436239 130.41203836 226.49972627 151.48318795 231.8828125 173.23828125 C232.08003906 174.03492188 232.27726562 174.8315625 232.48046875 175.65234375 C233.41869907 179.62834077 233.97965256 183.13154554 233.8828125 187.23828125 C234.46844971 187.21733398 235.05408691 187.19638672 235.6574707 187.17480469 C272.82411424 186.03972598 309.18125059 194.63516737 341.9765625 212.21728516 C343.25078418 212.89976403 344.52950762 213.57390162 345.8125 214.23974609 C362.55763195 222.93595041 377.25737206 234.25253285 390.8828125 247.23828125 C392.25107053 248.41284758 393.62543334 249.58036762 395.0078125 250.73828125 C409.43226344 263.35597345 421.07831327 279.86563518 430.8828125 296.23828125 C431.27533203 296.88249023 431.66785156 297.52669922 432.07226562 298.19042969 C450.26285636 328.30147886 461.78062963 365.01823447 462.12109375 400.35546875 C462.1308876 401.20205048 462.14068146 402.0486322 462.15077209 402.92086792 C462.52227682 443.40170553 456.23748391 481.26960008 436.90380859 517.33203125 C436.22132972 518.60625293 435.54719213 519.88497637 434.88134766 521.16796875 C426.18514334 537.9131007 414.8685609 552.61284081 401.8828125 566.23828125 C400.70824617 567.60653928 399.54072613 568.98090209 398.3828125 570.36328125 C385.7651203 584.78773219 369.25545857 596.43378202 352.8828125 606.23828125 C352.23860352 606.63080078 351.59439453 607.02332031 350.93066406 607.42773438 C320.81961489 625.61832511 284.10285928 637.13609838 248.765625 637.4765625 C247.91904327 637.48635635 247.07246155 637.49615021 246.20022583 637.50624084 C205.71938822 637.87774557 167.85149367 631.59295266 131.7890625 612.25927734 C130.51484082 611.57679847 129.23611738 610.90266088 127.953125 610.23681641 C111.20799305 601.54061209 96.50825294 590.22402965 82.8828125 577.23828125 C81.51455447 576.06371492 80.14019166 574.89619488 78.7578125 573.73828125 C64.33336156 561.12058905 52.68731173 544.61092732 42.8828125 528.23828125 C42.49029297 527.59407227 42.09777344 526.94986328 41.69335938 526.28613281 C30.08126261 507.06452414 22.26589873 485.99337455 16.8828125 464.23828125 C16.68558594 463.44164062 16.48835937 462.645 16.28515625 461.82421875 C15.34692593 457.84822173 14.78597244 454.34501696 14.8828125 450.23828125 C14.29717529 450.25922852 13.71153809 450.28017578 13.1081543 450.30175781 C-24.05848924 451.43683652 -60.41562559 442.84139513 -93.2109375 425.25927734 C-94.48515918 424.57679847 -95.76388262 423.90266088 -97.046875 423.23681641 C-113.79200695 414.54061209 -128.49174706 403.22402965 -142.1171875 390.23828125 C-143.48544553 389.06371492 -144.85980834 387.89619488 -146.2421875 386.73828125 C-160.66663844 374.12058905 -172.31268827 357.61092732 -182.1171875 341.23828125 C-182.50970703 340.59407227 -182.90222656 339.94986328 -183.30664062 339.28613281 C-201.49723136 309.17508364 -213.01500463 272.45832803 -213.35546875 237.12109375 C-213.3652626 236.27451202 -213.37505646 235.4279303 -213.38514709 234.55569458 C-213.75665182 194.07485697 -207.47185891 156.20696242 -188.13818359 120.14453125 C-187.45570472 118.87030957 -186.78156713 117.59158613 -186.11572266 116.30859375 C-177.41951834 99.5634618 -166.1029359 84.86372169 -153.1171875 71.23828125 C-151.94262117 69.87002322 -150.77510113 68.49566041 -149.6171875 67.11328125 C-136.9994953 52.68883031 -120.48983357 41.04278048 -104.1171875 31.23828125 C-103.15087402 30.64950195 -103.15087402 30.64950195 -102.16503906 30.04882812 C-72.05398989 11.85823739 -35.33723428 0.34046412 0 0 Z " fill="#30DCF6" transform="translate(238.1171875,16.76171875)"/>
<path d="M0 0 C37.81588597 -1.35261114 74.70177646 7.0770058 108.09375 24.97900391 C109.36797168 25.66148278 110.64669512 26.33562037 111.9296875 27.00146484 C128.67481945 35.69766916 143.37455956 47.0142516 157 60 C158.36825803 61.17456633 159.74262084 62.34208637 161.125 63.5 C175.54945094 76.1176922 187.19550077 92.62735393 197 109 C197.39251953 109.64420898 197.78503906 110.28841797 198.18945312 110.95214844 C216.38004386 141.06319761 227.89781713 177.77995322 228.23828125 213.1171875 C228.2480751 213.96376923 228.25786896 214.81035095 228.26795959 215.68258667 C228.63946432 256.16342428 222.35467141 294.03131883 203.02099609 330.09375 C202.33851722 331.36797168 201.66437963 332.64669512 200.99853516 333.9296875 C192.30233084 350.67481945 180.9857484 365.37455956 168 379 C166.82543367 380.36825803 165.65791363 381.74262084 164.5 383.125 C151.8823078 397.54945094 135.37264607 409.19550077 119 419 C118.35579102 419.39251953 117.71158203 419.78503906 117.04785156 420.18945312 C86.93680239 438.38004386 50.22004678 449.89781713 14.8828125 450.23828125 C14.03623077 450.2480751 13.18964905 450.25786896 12.31741333 450.26795959 C-28.16342428 450.63946432 -66.03131883 444.35467141 -102.09375 425.02099609 C-103.36797168 424.33851722 -104.64669512 423.66437963 -105.9296875 422.99853516 C-122.67481945 414.30233084 -137.37455956 402.9857484 -151 390 C-152.36825803 388.82543367 -153.74262084 387.65791363 -155.125 386.5 C-169.54945094 373.8823078 -181.19550077 357.37264607 -191 341 C-191.39251953 340.35579102 -191.78503906 339.71158203 -192.18945312 339.04785156 C-203.80154989 319.82624289 -211.61691377 298.7550933 -217 277 C-217.29583984 275.80503906 -217.29583984 275.80503906 -217.59765625 274.5859375 C-218.53588657 270.60994048 -219.09684006 267.10673571 -219 263 C-217.7939209 262.89510254 -217.7939209 262.89510254 -216.56347656 262.78808594 C-184.08896181 259.90660974 -153.72046125 254.00312794 -124 240 C-123.11248047 239.59346191 -122.22496094 239.18692383 -121.31054688 238.76806641 C-118.66796789 237.54661405 -116.05103594 236.282259 -113.4375 235 C-112.64561279 234.63350342 -111.85372559 234.26700684 -111.0378418 233.8894043 C-107.05616869 231.85430755 -104.7398164 230.19480527 -103.01147461 225.9987793 C-102.6785994 225.1963681 -102.34572418 224.39395691 -102.00276184 223.56723022 C-100.27922278 219.15469538 -98.61842517 214.72455312 -97.0078125 210.26953125 C-96.62897919 209.22892044 -96.25014587 208.18830963 -95.85983276 207.11616516 C-94.61141815 203.68285933 -93.36808185 200.24773988 -92.125 196.8125 C-91.24874964 194.398907 -90.37244653 191.98533316 -89.49609375 189.57177734 C-84.58746396 176.03146091 -79.7349943 162.4718521 -74.9296875 148.89453125 C-74.68035587 148.19031099 -74.43102425 147.48609074 -74.17413712 146.76053047 C-71.72877702 139.85304473 -69.28681078 132.94439786 -66.85739326 126.03128719 C-66.17261085 124.08407562 -65.486275 122.13741931 -64.79934692 120.19096375 C-63.96207174 117.81760904 -63.12760456 115.44326092 -62.29660034 113.06770325 C-61.92028473 112.00267075 -61.54396912 110.93763824 -61.15625 109.84033203 C-60.83462891 108.92478546 -60.51300781 108.00923889 -60.18164062 107.06594849 C-58.60750914 102.98162204 -56.77773689 98.999908 -55 95 C-47.08 95 -39.16 95 -31 95 C-26.5059854 105.11153285 -26.5059854 105.11153285 -24.67578125 110.3125 C-24.28712891 111.40691406 -23.89847656 112.50132812 -23.49804688 113.62890625 C-22.91120117 115.29759766 -22.91120117 115.29759766 -22.3125 117 C-21.51948217 119.25090182 -20.72404567 121.5009535 -19.92578125 123.75 C-19.57942627 124.73484375 -19.23307129 125.7196875 -18.8762207 126.734375 C-18.20125928 128.9335551 -18.20125928 128.9335551 -17 130 C-8.13323091 107.7027707 -1.71730937 85.8711839 1 62 C1.13148438 60.96617187 1.26296875 59.93234375 1.3984375 58.8671875 C3.50328575 39.35467538 1.78114788 19.45998796 0 0 Z " fill="#F6309C" transform="translate(472,204)"/>
<path d="M0 0 C7.13225607 42.30882001 3.38827805 91.04336702 -16 130 C-16.66 130.33 -17.32 130.66 -18 131 C-18.48412354 129.67609253 -18.48412354 129.67609253 -18.97802734 128.32543945 C-20.18136813 125.035832 -21.38538112 121.74647218 -22.58984375 118.45727539 C-23.1099683 117.03647495 -23.62982853 115.61557772 -24.14941406 114.19458008 C-24.89838488 112.14638881 -25.64832083 110.0985531 -26.3984375 108.05078125 C-26.84880371 106.82012939 -27.29916992 105.58947754 -27.76318359 104.3215332 C-28.80177906 101.53233239 -29.89463243 98.76341894 -31 96 C-38.92 96 -46.84 96 -55 96 C-56.76537109 100.95 -56.76537109 100.95 -58.56640625 106 C-67.66256707 131.49728432 -76.77583496 156.98843077 -85.92282104 182.4675293 C-86.92666955 185.26384455 -87.92983938 188.06040176 -88.93240356 190.85717773 C-90.12450203 194.18250445 -91.3181104 197.50728555 -92.5128212 200.83167458 C-93.15540378 202.62073311 -93.79659079 204.41029271 -94.43771362 206.19987488 C-95.22404456 208.3858629 -96.01584482 210.56989308 -96.8137207 212.75169373 C-97.6447311 215.02719182 -98.46070532 217.30821134 -99.26538086 219.59315491 C-99.6869043 220.75511887 -100.10842773 221.91708282 -100.54272461 223.11425781 C-100.91537949 224.16051331 -101.28803436 225.2067688 -101.67198181 226.284729 C-103.9429587 230.92797692 -107.48428289 232.80204561 -112 235 C-112.84916992 235.44972168 -113.69833984 235.89944336 -114.57324219 236.36279297 C-117.31433896 237.78348949 -120.08236936 239.12115719 -122.875 240.4375 C-123.88240234 240.91340576 -124.88980469 241.38931152 -125.92773438 241.87963867 C-155.70934697 255.73936233 -186.26977682 262.03832171 -219 263 C-219.31919939 261.68911318 -219.62985947 260.37614752 -219.9375 259.0625 C-220.19853516 257.96615234 -220.19853516 257.96615234 -220.46484375 256.84765625 C-221.74416962 250.04014854 -222.16767832 243.23588395 -222.23828125 236.3203125 C-222.24812042 235.51834946 -222.25795959 234.71638641 -222.26809692 233.89012146 C-222.5809035 201.72434149 -218.59319817 172.18371119 -207 141.9375 C-206.70448242 141.14674072 -206.40896484 140.35598145 -206.10449219 139.54125977 C-203.73584468 133.69342473 -200.35848837 129.51732721 -196 125 C-195.15695312 124.11054688 -194.31390625 123.22109375 -193.4453125 122.3046875 C-192.67960937 121.50289063 -191.91390625 120.70109375 -191.125 119.875 C-180.5085155 108.17750568 -172.85753509 94.32600945 -168.93359375 78.96484375 C-167.5353281 76.02205036 -165.35894555 74.23547457 -163 72 C-161.90612568 70.8906788 -160.81650836 69.77714886 -159.73046875 68.66015625 C-158.54956026 67.46085764 -157.36856927 66.26164027 -156.1875 65.0625 C-155.60935547 64.46759766 -155.03121094 63.87269531 -154.43554688 63.25976562 C-153.5605957 62.37514648 -153.5605957 62.37514648 -152.66796875 61.47265625 C-151.89876099 60.68773804 -151.89876099 60.68773804 -151.11401367 59.88696289 C-147.92455531 57.04006098 -144.42017498 54.56513123 -141 52 C-141 93.58 -141 135.16 -141 178 C-134.73 178 -128.46 178 -122 178 C-122 152.59 -122 127.18 -122 101 C-114.74 101 -107.48 101 -100 101 C-100 95.72 -100 90.44 -100 85 C-107.26 85 -114.52 85 -122 85 C-122.34596337 78.31906283 -122.64351472 71.66936287 -122.82397461 64.98657227 C-122.89915951 62.71889854 -123.00135262 60.4519463 -123.1315918 58.18676758 C-124.15737333 39.87958415 -124.15737333 39.87958415 -120.59210205 35.12078857 C-117.11910812 32.10011516 -113.243593 30.3438172 -108.95410156 28.77037048 C-105.76764226 27.51416444 -102.94384192 25.74489298 -100 24 C-70.25996769 7.9760621 -33.82859051 -1.71767173 0 0 Z " fill="#F1F8ED" transform="translate(472,204)"/>
<path d="M0 0 C7.92 0 15.84 0 24 0 C28.49982013 10.1245953 28.49982013 10.1245953 30.27978516 15.10327148 C30.68249634 16.22429764 31.08520752 17.34532379 31.50012207 18.50032043 C32.13814758 20.29260323 32.13814758 20.29260323 32.7890625 22.12109375 C33.24981388 23.40743363 33.71088167 24.69366022 34.17224121 25.9797821 C35.15181294 28.71248482 36.12929049 31.44592341 37.1050415 34.17999268 C38.638173 38.47583624 40.1758551 42.77004162 41.71435547 47.06396484 C43.2825777 51.44148479 44.85051158 55.81910668 46.41677856 60.19732666 C51.29991748 73.84695538 56.20984964 87.48686565 61.125 101.125 C61.85894115 103.16200838 62.59282953 105.19903578 63.32666016 107.23608398 C63.84527115 108.67560677 63.84527115 108.67560677 64.37435913 110.14421082 C65.03256055 111.97244518 65.6901606 113.8008962 66.34707642 115.6295929 C67.75254101 119.54205536 69.16312495 123.4522252 70.59667969 127.35449219 C70.83530731 128.0087619 71.07393494 128.66303162 71.3197937 129.33712769 C71.93772297 131.03043841 72.56019566 132.72208932 73.18310547 134.41357422 C74 137 74 137 74 140 C66.74 140 59.48 140 52 140 C50.28663163 135.21429698 48.57617645 130.42775555 46.87304688 125.63842773 C46.29271312 124.00924134 45.71069119 122.38065528 45.12695312 120.75268555 C44.28852631 118.41350324 43.45618063 116.07223407 42.625 113.73046875 C42.36251465 113.00224411 42.1000293 112.27401947 41.82958984 111.52372742 C40.78000848 108.55090347 40 106.17774382 40 103 C12.775 103.495 12.775 103.495 -15 104 C-18.90738092 115.47242055 -18.90738092 115.47242055 -22.80834961 126.94702148 C-23.29778102 128.38012527 -23.78743062 129.81315457 -24.27734375 131.24609375 C-24.53132935 131.99669067 -24.78531494 132.7472876 -25.04699707 133.52062988 C-26.8859282 138.8859282 -26.8859282 138.8859282 -28 140 C-29.63472882 140.08700342 -31.27314055 140.10701063 -32.91015625 140.09765625 C-33.89951172 140.09443359 -34.88886719 140.09121094 -35.90820312 140.08789062 C-36.94912109 140.07951172 -37.99003906 140.07113281 -39.0625 140.0625 C-40.10728516 140.05798828 -41.15207031 140.05347656 -42.22851562 140.04882812 C-44.81906936 140.03699911 -47.40949746 140.01967834 -50 140 C-47.90660766 131.74718333 -45.25248176 123.78699521 -42.34375 115.7890625 C-41.88363545 114.5140253 -41.42391937 113.23884424 -40.96456909 111.96353149 C-39.73564867 108.55474418 -38.50166931 105.14780958 -37.26665497 101.7412262 C-35.97643341 98.17977969 -34.69069337 94.61671663 -33.40478516 91.05371094 C-32.88187785 89.60497636 -32.3589591 88.1562459 -31.83602905 86.70751953 C-31.57604504 85.98725586 -31.31606102 85.26699219 -31.0481987 84.52490234 C-30.25546061 82.32942398 -29.46210937 80.13416803 -28.66860962 77.93896484 C-25.23506866 68.4379493 -21.82369098 58.9292693 -18.4296875 49.4140625 C-17.99694519 48.20187042 -17.56420288 46.98967834 -17.11834717 45.74075317 C-14.64905235 38.82366575 -14.64905235 38.82366575 -12.18530273 31.90460205 C-8.36225894 21.15708533 -4.54944702 10.46552635 0 0 Z " fill="#191819" transform="translate(417,299)"/>
<path d="M0 0 C6.27 0 12.54 0 19 0 C19 19.8 19 39.6 19 60 C26.26 60 33.52 60 41 60 C41 65.28 41 70.56 41 76 C33.74 76 26.48 76 19 76 C19 101.41 19 126.82 19 153 C12.73 153 6.46 153 0 153 C0 102.51 0 52.02 0 0 Z " fill="#1B1C1C" transform="translate(331,229)"/>
<path d="M0 0 C23.76 0 47.52 0 72 0 C72 17.61170801 72 17.61170801 70.4375 25.25 C70.26186523 26.12986572 70.08623047 27.00973145 69.90527344 27.91625977 C65.44615536 48.85350535 56.39411145 66.24313244 42 82 C41.35546875 82.72703125 40.7109375 83.4540625 40.046875 84.203125 C30.70754579 94.19214668 17.55775398 103.56780736 5 109 C2.87109375 109.0390625 2.87109375 109.0390625 1 108 C-1.140625 105.6015625 -1.140625 105.6015625 -3.25 102.625 C-3.95640625 101.64789063 -4.6628125 100.67078125 -5.390625 99.6640625 C-7 97 -7 97 -7 94 C-5.99582031 93.46632813 -4.99164063 92.93265625 -3.95703125 92.3828125 C21.87438661 78.41421841 41.56211362 59.22895039 50.17578125 30.42578125 C51.32195127 25.66184235 52.1234829 20.82084405 53 16 C35.51 16 18.02 16 0 16 C0 10.72 0 5.44 0 0 Z " fill="#171B1C" transform="translate(237,245)"/>
<path d="M0 0 C0.66 0 1.32 0 2 0 C7.04669667 14.02527311 12.06296525 28.06166511 16.95635986 42.14126587 C17.40132404 43.41980168 17.84789288 44.69778017 18.29608154 45.97518921 C18.92330196 47.76441952 19.54383651 49.55598935 20.1640625 51.34765625 C20.51936035 52.36867432 20.8746582 53.38969238 21.24072266 54.44165039 C22 57 22 57 22 60 C8.14 60 -5.72 60 -20 60 C-19.26340795 56.31703977 -18.44766865 53.11881177 -17.25 49.59887695 C-16.89292969 48.54461014 -16.53585937 47.49034332 -16.16796875 46.40412903 C-15.78253906 45.27689926 -15.39710938 44.14966949 -15 42.98828125 C-14.60425781 41.82370895 -14.20851563 40.65913666 -13.80078125 39.45927429 C-12.96501983 37.00188732 -12.12774417 34.5450149 -11.2890625 32.08862305 C-10.00168209 28.31742743 -8.71920815 24.54461103 -7.4375 20.77148438 C-6.62528716 18.3853189 -5.81279671 15.9992479 -5 13.61328125 C-4.61457031 12.47997879 -4.22914063 11.34667633 -3.83203125 10.17903137 C-3.47496094 9.13422104 -3.11789062 8.08941071 -2.75 7.01293945 C-2.43546875 6.09092239 -2.1209375 5.16890533 -1.796875 4.21894836 C-1 2 -1 2 0 0 Z " fill="#EDF3E9" transform="translate(428,325)"/>
<path d="M0 0 C2.71256106 4.06884159 4.03071 8.39859389 5.625 13 C6.11226563 14.37285156 6.11226563 14.37285156 6.609375 15.7734375 C6.91617188 16.65257812 7.22296875 17.53171875 7.5390625 18.4375 C7.95986084 19.64212891 7.95986084 19.64212891 8.38916016 20.87109375 C9 23 9 23 9 26 C-4.86 26 -18.72 26 -33 26 C-32.505 24.515 -32.505 24.515 -32 23 C-32 23.66 -32 24.32 -32 25 C-22.64437521 26.03515917 -22.64437521 26.03515917 -14.24316406 22.62548828 C-10.48604648 18.54424088 -7.70828035 13.81569222 -5 9 C-4.4121875 8.01128906 -3.824375 7.02257812 -3.21875 6.00390625 C-2.08536225 4.03621918 -1.02969349 2.02388031 0 0 Z " fill="#E43595" transform="translate(441,359)"/>
<path d="M0 0 C1.4540625 0.0309375 1.4540625 0.0309375 2.9375 0.0625 C0.54792731 3.30549151 -1.2672869 5.57152342 -5.0625 7.0625 C-4.02286585 0.0820993 -4.02286585 0.0820993 0 0 Z " fill="#E3DBD9" transform="translate(405.0625,401.9375)"/>
</svg>
