<svg width="33" height="32" viewBox="0 0 33 32" fill="none" xmlns="http://www.w3.org/2000/svg">
<g clip-path="url(#clip0_233_1641)">
<path d="M32.5 16C32.5 7.16352 25.3365 0 16.5 0C7.66352 0 0.5 7.16352 0.5 16C0.5 23.5034 5.66608 29.7997 12.635 31.529V20.8896H9.33584V16H12.635V13.8931C12.635 8.44736 15.0997 5.9232 20.4462 5.9232C21.46 5.9232 23.2091 6.12224 23.9246 6.32064V10.7526C23.547 10.713 22.891 10.6931 22.0763 10.6931C19.453 10.6931 18.4392 11.687 18.4392 14.2707V16H23.6654L22.7675 20.8896H18.4392V31.8829C26.3618 30.9261 32.5006 24.1805 32.5006 16H32.5Z" fill="#0866FF"/>
<path d="M22.7669 20.8895L23.6648 15.9999H18.4386V14.2706C18.4386 11.6869 19.4523 10.693 22.0757 10.693C22.8904 10.693 23.5464 10.7129 23.924 10.7525V6.32054C23.2085 6.1215 21.4594 5.9231 20.4456 5.9231C15.099 5.9231 12.6344 8.44726 12.6344 13.893V15.9999H9.33521V20.8895H12.6344V31.5289C13.8722 31.8361 15.1669 31.9999 16.4994 31.9999C17.1554 31.9999 17.8024 31.9596 18.4379 31.8828V20.8895H22.7662H22.7669Z" fill="#F7F7F7"/>
</g>
<defs>
<clipPath id="clip0_233_1641">
<rect width="32" height="32" fill="white" transform="translate(0.5)"/>
</clipPath>
</defs>
</svg>
