<svg width="33" height="32" viewBox="0 0 33 32" fill="none" xmlns="http://www.w3.org/2000/svg">
<path fill-rule="evenodd" clip-rule="evenodd" d="M30.8606 16.3485C30.8606 15.2612 30.7631 14.2158 30.5818 13.2122H16.1406V19.1434H24.3927C24.0373 21.06 22.957 22.684 21.333 23.7712V27.6185H26.2885C29.1879 24.9491 30.8606 21.0182 30.8606 16.3485Z" fill="#4285F4"/>
<path fill-rule="evenodd" clip-rule="evenodd" d="M16.1404 31.3336C20.2804 31.3336 23.7513 29.9605 26.2883 27.6187L21.3328 23.7715C19.9598 24.6915 18.2034 25.2351 16.1404 25.2351C12.1468 25.2351 8.76647 22.5378 7.56072 18.9136H2.43799V22.8863C4.96102 27.8975 10.1465 31.3336 16.1404 31.3336Z" fill="#34A853"/>
<path fill-rule="evenodd" clip-rule="evenodd" d="M7.56089 18.9134C7.25422 17.9934 7.07998 17.0107 7.07998 16.0001C7.07998 14.9895 7.25422 14.0067 7.56089 13.0867V9.11401H2.43816C1.39968 11.184 0.807251 13.5258 0.807251 16.0001C0.807251 18.4743 1.39968 20.8161 2.43816 22.8861L7.56089 18.9134Z" fill="#FBBC05"/>
<path fill-rule="evenodd" clip-rule="evenodd" d="M16.1404 6.76523C18.3916 6.76523 20.4128 7.53887 22.0019 9.05826L26.3998 4.66038C23.7444 2.18614 20.2734 0.666748 16.1404 0.666748C10.1465 0.666748 4.96102 4.10281 2.43799 9.11402L7.56072 13.0867C8.76647 9.46251 12.1468 6.76523 16.1404 6.76523Z" fill="#EA4335"/>
</svg>
