<svg width="33" height="32" viewBox="0 0 33 32" fill="none" xmlns="http://www.w3.org/2000/svg">
<circle cx="16.6406" cy="16" r="16" fill="#FEE500"/>
<path d="M16.687 7.72217C11.709 7.72217 7.69458 10.9337 7.69458 14.8326C7.69458 17.3633 9.3646 19.5792 11.8696 20.8446L11.0218 24.0112C11.0058 24.0587 11.0033 24.1096 11.0147 24.1584C11.026 24.2072 11.0507 24.2519 11.086 24.2874C11.1375 24.3328 11.2037 24.3579 11.2723 24.358C11.3292 24.3535 11.3831 24.331 11.4264 24.2938L15.0748 21.8338C15.6133 21.9081 16.1562 21.9467 16.6998 21.9494C21.6713 21.9494 25.6922 18.7378 25.6922 14.8326C25.6922 10.9273 21.6585 7.72217 16.687 7.72217Z" fill="#392020"/>
<path d="M10.8416 13.7084H9.85887C9.73707 13.7119 9.61677 13.6807 9.51202 13.6184C9.46552 13.5893 9.42554 13.5509 9.39459 13.5055C9.36364 13.4602 9.34239 13.409 9.33217 13.3551C9.32905 13.3209 9.32905 13.2865 9.33217 13.2524C9.32912 13.1884 9.34154 13.1246 9.36837 13.0665C9.39521 13.0083 9.43567 12.9575 9.48633 12.9183C9.59831 12.8372 9.73347 12.7944 9.87172 12.7963H12.8328C12.9556 12.792 13.0767 12.8256 13.1796 12.8926C13.2272 12.9205 13.2681 12.9586 13.2992 13.0041C13.3303 13.0497 13.3509 13.1015 13.3595 13.156C13.3626 13.188 13.3626 13.2203 13.3595 13.2524C13.3625 13.3173 13.3501 13.3819 13.3233 13.4411C13.2965 13.5003 13.2561 13.5522 13.2053 13.5927C13.0961 13.6737 12.9622 13.7146 12.8264 13.7084H11.8757V17.087C11.8796 17.1589 11.8685 17.2309 11.843 17.2983C11.8176 17.3658 11.7784 17.4273 11.728 17.4788C11.6797 17.528 11.6215 17.5666 11.5574 17.5921C11.4932 17.6175 11.4244 17.6292 11.3555 17.6265C11.2348 17.6299 11.1168 17.5914 11.0215 17.5173C10.9307 17.445 10.8692 17.3423 10.848 17.2283C10.8417 17.1814 10.8417 17.1338 10.848 17.087L10.8416 13.7084Z" fill="#FEE500"/>
<path d="M13.643 13.0468C13.6713 12.9411 13.7376 12.8495 13.8293 12.7898C13.927 12.7345 14.0383 12.7078 14.1505 12.7128H14.3945C14.5136 12.7085 14.6314 12.7374 14.735 12.7963C14.8447 12.87 14.9226 12.9824 14.9533 13.111L16.238 16.7401C16.2713 16.8348 16.2992 16.9313 16.3215 17.0292C16.3237 17.0698 16.3237 17.1105 16.3215 17.1512C16.3236 17.2138 16.3121 17.2761 16.2877 17.3338C16.2633 17.3915 16.2266 17.4431 16.1802 17.4852C16.1352 17.5313 16.0811 17.5677 16.0215 17.592C15.9618 17.6163 15.8977 17.628 15.8333 17.6265C15.7342 17.6363 15.6347 17.6126 15.5509 17.559C15.467 17.5054 15.4035 17.4251 15.3708 17.331L15.1011 16.541H13.4118L13.142 17.331C13.1101 17.4269 13.0459 17.5088 12.9604 17.5626C12.8749 17.6165 12.7734 17.6391 12.6731 17.6265C12.5645 17.6293 12.4581 17.5953 12.3712 17.5301C12.2866 17.4628 12.2295 17.3669 12.2107 17.2604C12.2073 17.2241 12.2073 17.1875 12.2107 17.1512C12.1996 17.0874 12.1996 17.0223 12.2107 16.9585C12.2107 16.8879 12.2556 16.8107 12.2813 16.7401L13.643 13.0468ZM14.2853 13.8882L13.6751 15.8152H14.8891L14.2853 13.8882Z" fill="#FEE500"/>
<path d="M16.4686 13.2525C16.4621 13.1084 16.5129 12.9675 16.6099 12.8607C16.6592 12.811 16.7184 12.7721 16.7837 12.7467C16.849 12.7212 16.9189 12.7097 16.9888 12.7129C17.1092 12.7115 17.2266 12.7499 17.3229 12.8222C17.4121 12.8975 17.4713 13.0023 17.4899 13.1176C17.4962 13.1623 17.4962 13.2078 17.4899 13.2525V16.6311H19.2562C19.3787 16.6295 19.499 16.6629 19.6031 16.7274C19.6498 16.7562 19.69 16.7946 19.721 16.84C19.752 16.8854 19.7731 16.9367 19.7829 16.9908C19.7829 16.9908 19.7829 17.055 19.7829 17.0871C19.786 17.1511 19.7736 17.2148 19.7467 17.273C19.7199 17.3311 19.6794 17.382 19.6288 17.4212C19.5168 17.5022 19.3816 17.545 19.2434 17.5432H17.0723C16.9341 17.5521 16.7966 17.5161 16.6805 17.4404C16.5767 17.3628 16.5075 17.2475 16.4878 17.1193C16.4831 17.0487 16.4831 16.9778 16.4878 16.9073L16.4686 13.2525Z" fill="#FEE500"/>
<path d="M19.8985 13.2526C19.8947 13.1088 19.9451 12.969 20.0398 12.8608C20.1361 12.7733 20.2596 12.7216 20.3895 12.7146C20.5193 12.7076 20.6477 12.7456 20.7528 12.8222C20.844 12.8969 20.9055 13.0016 20.9262 13.1176C20.9294 13.1625 20.9294 13.2077 20.9262 13.2526V14.8262L22.5513 12.9506C22.6139 12.8866 22.6804 12.8266 22.7504 12.7708C22.8164 12.7315 22.892 12.7115 22.9688 12.713C23.081 12.7124 23.1908 12.746 23.2835 12.8093C23.3272 12.8387 23.3645 12.8767 23.3932 12.9208C23.4219 12.965 23.4414 13.0144 23.4505 13.0663C23.4531 13.079 23.4531 13.0921 23.4505 13.1048C23.4474 13.1197 23.4474 13.135 23.4505 13.1498C23.4503 13.2174 23.4326 13.2838 23.3991 13.3425C23.365 13.4047 23.3241 13.4628 23.2771 13.5159L22.2109 14.6849L23.4955 16.6761V16.7403C23.5622 16.8323 23.6142 16.9342 23.6496 17.0422V17.0743C23.6571 17.1487 23.6463 17.2239 23.6184 17.2932C23.5904 17.3626 23.546 17.4241 23.4891 17.4725C23.3819 17.5535 23.2508 17.5965 23.1165 17.5946C23.0273 17.5983 22.9387 17.5783 22.8596 17.5368C22.774 17.4794 22.7035 17.4023 22.6541 17.312L21.4593 15.385L20.8877 15.9824V17.055C20.8915 17.1987 20.8411 17.3386 20.7464 17.4468C20.6956 17.4964 20.6352 17.5352 20.569 17.5606C20.5027 17.586 20.4319 17.5976 20.361 17.5946C20.2425 17.5971 20.1267 17.5585 20.0334 17.4854C19.9427 17.4131 19.8811 17.3105 19.86 17.1964C19.8536 17.1495 19.8536 17.1019 19.86 17.055L19.8985 13.2526Z" fill="#FEE500"/>
</svg>
